<svg id="Capa_1" enable-background="new 0 0 512 512" height="512" viewBox="0 0 512 512" width="512" xmlns="http://www.w3.org/2000/svg"><g><path d="m452 302.507v-16.507c0-36.219-25.81-66.524-60-73.493v-16.507c0-41.457-34.534-75-76-75-24.813 0-45-20.187-45-45v-15h-15c-36.663 0-67.266 26.445-73.739 61.261-34.816 6.473-61.261 37.076-61.261 73.739v16.507c-34.191 6.969-61 37.274-61 73.493v16.507c-34.191 6.969-60 37.274-60 73.493v30c0 24.813 20.187 45 45 45h422c24.813 0 45-20.187 45-45v-30c0-36.219-25.81-66.524-60-73.493zm30 103.493c0 8.271-6.729 15-15 15h-422c-8.271 0-15-6.729-15-15v-30c0-24.813 20.187-45 45-45h15v-45c0-24.813 21.187-45 46-45h165v-30h-150v-15c0-24.813 20.187-45 45-45h15v-15c0-20.268 13.471-37.45 31.928-43.064 7.699 33.224 37.54 58.064 73.072 58.064 24.935 0 46 20.607 46 45v45h15c24.813 0 45 20.187 45 45v15h-241v30h256c24.813 0 45 20.187 45 45z"/></g></svg>